<svg width="112" height="55" viewBox="0 0 112 55" fill="none" xmlns="http://www.w3.org/2000/svg">
<path fill-rule="evenodd" clip-rule="evenodd" d="M17 6L23 0L35.0273 21H76.4728L88.5001 0L94.5001 6L99.0001 11.5L103.5 18L107 24.5L109.5 32.5L111 40L111.5 47.5V55H85H57H54.5H31H0V47.5L0.5 40L2 32.5L4.49999 24.5L7.99999 18L12.5 11.5L17 6ZM35 37.5C35 41.0899 32.9853 44 30.5 44C28.0147 44 26 41.0899 26 37.5C26 33.9101 28.0147 31 30.5 31C32.9853 31 35 33.9101 35 37.5ZM85 37.5C85 41.0899 82.9853 44 80.5 44C78.0147 44 76 41.0899 76 37.5C76 33.9101 78.0147 31 80.5 31C82.9853 31 85 33.9101 85 37.5ZM56.8633 51.4532C56.5619 51.2645 56.2933 51.0573 56.0559 50.8331C55.8136 51.0648 55.5382 51.2785 55.228 51.4727C53.8704 52.3225 52.3822 52.5528 50.9609 52.5158C50.1328 52.4942 49.4789 51.8054 49.5005 50.9772C49.5221 50.1491 50.2109 49.4952 51.0391 49.5168C52.0907 49.5442 52.9368 49.3676 53.6362 48.9298C54.0282 48.6844 54.2109 48.4341 54.3172 48.1878C54.4365 47.9117 54.5 47.5446 54.5 47.0195C54.5 46.2831 55.0307 45.6706 55.7305 45.5437C55.8461 45.5151 55.9669 45.5 56.0913 45.5C56.9197 45.5 57.5913 46.1716 57.5913 47C57.5913 47.525 57.6548 47.8922 57.7741 48.1683C57.8804 48.4145 58.0631 48.6649 58.4551 48.9103C59.1545 49.3481 60.0006 49.5247 61.0523 49.4973C61.8804 49.4757 62.5692 50.1296 62.5908 50.9577C62.6124 51.7859 61.9585 52.4747 61.1304 52.4963C59.7091 52.5333 58.2209 52.303 56.8633 51.4532Z" fill="white"/>
</svg>
