<svg width="183" height="18" viewBox="0 0 183 18" fill="none" xmlns="http://www.w3.org/2000/svg">
<path d="M0.243573 17.1704V0.802286H19.4006V4.99174H6.62518V7.08647H19.4006V10.874H6.62518V12.9688H19.4006V17.1704H0.243573ZM22.7984 0.790107H38.5698C41.9432 0.753571 44.8052 3.5912 44.7565 6.97686C44.7565 8.2069 44.4277 9.32734 43.77 10.326C43.1246 11.3125 42.2599 12.0675 41.1882 12.5669L44.7565 17.1582H37.9608L34.8796 13.1636H29.18V17.1582H22.7984V0.790107ZM36.9622 5.57631H29.18V8.36522H36.9622C37.3519 8.36522 37.6807 8.23126 37.9487 7.96333C38.2288 7.68322 38.3627 7.3544 38.3627 6.97686C38.3627 6.19742 37.7416 5.57631 36.9622 5.57631ZM46.7416 0.777929H53.1232V17.146H46.7416V0.777929ZM70.7823 10.3625H77.3222C76.9203 15.8916 72.0732 17.5479 66.1787 17.5479C60.0407 17.5357 54.9744 15.7577 54.9987 9.55873V8.36522C54.9744 2.17847 60.0407 0.400391 66.1787 0.376034C72.0732 0.388212 76.9203 2.04451 77.3222 7.56143H70.7823C70.1855 5.95385 68.3709 5.57631 66.1787 5.57631C63.5725 5.61285 61.356 6.07564 61.3925 8.76712V9.16901C61.356 11.8361 63.5725 12.3233 66.1787 12.3598C68.3709 12.3598 70.1977 11.9701 70.7823 10.3625ZM90.0002 0.777929H96.3818V11.9579H109.157V17.146H90.0002V0.777929ZM125.623 9.16901V0.777929H132.016V9.57091C132.041 15.7577 126.975 17.5357 120.836 17.5479C114.698 17.5357 109.632 15.7577 109.656 9.57091V0.777929H116.038V9.16901C116.014 11.8605 118.218 12.3233 120.836 12.3598C123.443 12.3233 125.659 11.8605 125.623 9.16901ZM150.857 9.44912V0.777929H157.251V17.146H150.065L141.272 7.14736V17.146H134.891V0.777929H143.671L150.857 9.44912ZM170.318 5.53978L168.065 10.3747H172.559L170.318 5.53978ZM157.738 17.1704L166.519 0.802286H174.106L182.887 17.1704H175.701L174.41 14.3693H166.214L164.923 17.1704H157.738Z" fill="#333333"/>
</svg>
