<svg width="19" height="19" viewBox="0 0 19 19" fill="none" xmlns="http://www.w3.org/2000/svg">
<path d="M9.7033 17.3392C11.5419 17.3391 13.3285 16.7284 14.7824 15.6029C16.2363 14.4774 17.2753 12.901 17.7362 11.121M9.7033 17.3392C7.86467 17.3391 6.07813 16.7284 4.62421 15.6029C3.17029 14.4774 2.13132 12.901 1.67044 11.121M9.7033 17.3392C11.9935 17.3392 13.8506 13.6251 13.8506 9.04461C13.8506 4.46414 11.9935 0.750001 9.7033 0.750001M9.7033 17.3392C7.41307 17.3392 5.556 13.6251 5.556 9.04461C5.556 4.46414 7.41307 0.750001 9.7033 0.750001M17.7362 11.121C17.9067 10.4575 17.9979 9.76163 17.9979 9.04461C18.0002 7.61804 17.6328 6.21522 16.9316 4.97288M17.7362 11.121C15.2784 12.4835 12.5135 13.1963 9.7033 13.1919C6.78913 13.1919 4.05099 12.4408 1.67044 11.121M1.67044 11.121C1.49602 10.4427 1.40807 9.74501 1.40869 9.04461C1.40869 7.5654 1.79578 6.1756 2.47501 4.97288M9.7033 0.750001C11.1744 0.749387 12.6192 1.14018 13.8895 1.88227C15.1597 2.62437 16.2097 3.69105 16.9316 4.97288M9.7033 0.750001C8.23217 0.749387 6.78736 1.14018 5.51711 1.88227C4.24687 2.62437 3.19693 3.69105 2.47501 4.97288M16.9316 4.97288C14.9249 6.71099 12.3581 7.66599 9.7033 7.66218C6.94028 7.66218 4.41319 6.64839 2.47501 4.97288" stroke="#fff" stroke-width="1.38243" stroke-linecap="round" stroke-linejoin="round"/>
</svg>
